
		<svg xmlns="http://www.w3.org/2000/svg" xmlns:xlink="http://www.w3.org/1999/xlink" version="1.1" width="3206.896551724138" height="941.3793103448276">
			
			<g transform="scale(10.344827586206897) translate(10, 10)">
				<defs id="SvgjsDefs1664"/><g id="SvgjsG1665" featureKey="root" fill="#fff"/><g id="SvgjsG1666" featureKey="symbol1" fill="#fff" transform="matrix(0.08433734939759036,0,0,0.08433734939759036,-0.8433734939759036,-0.5271084337349398)"><defs/><g><path d="M143 835l499 -1 113 -119 -727 0 115 120zm235 -818c-2,-4 -7,-4 -10,0l10 0zm10 8l-4 0 0 10c42,-51 58,65 93,-26l0 88c-34,76 -64,-39 -93,23l0 31 456 479 -456 0 0 28 206 0 45 49 138 0 -128 135 -504 1 -1 0 -1 -1 -129 -135 155 0 46 -49 152 0 0 -83 -208 0 208 -349 0 -201 -4 0c0,-25 29,-25 29,0zm-11 0l-7 0 0 550 0 83 7 0 0 -633zm26 643c9,0 17,8 17,18 0,9 -8,17 -17,17 -10,0 -18,-8 -18,-17 0,-10 8,-18 18,-18zm0 8c-6,0 -10,4 -10,10 0,5 4,10 10,10 5,0 10,-5 10,-10 0,-6 -5,-10 -10,-10zm117 -8c10,0 18,8 18,18 0,9 -8,17 -18,17 -10,0 -17,-8 -17,-17 0,-10 7,-18 17,-18zm0 8c-5,0 -10,4 -10,10 0,5 5,10 10,10 6,0 10,-5 10,-10 0,-6 -4,-10 -10,-10zm-248 -8c10,0 18,8 18,18 0,9 -8,17 -18,17 -10,0 -18,-8 -18,-17 0,-10 8,-18 18,-18zm0 8c-5,0 -10,4 -10,10 0,5 5,10 10,10 6,0 10,-5 10,-10 0,-6 -4,-10 -10,-10zm112 -625l0 53c32,-46 59,49 85,-9l0 -53c-31,45 -57,-49 -85,9zm-21 190l-195 326 195 0 0 -326zm-149 424l-39 42 449 0 -37 -41c-125,0 -249,0 -373,-1zm608 -42l-437 -460 0 460 437 0z" style="fill: #3464d0; fill-rule: nonzero;"/></g></g><g id="SvgjsG1667" featureKey="text1" fill="#fff" transform="matrix(1.5484669737484096,0,0,1.5484669737484096,88.82316437635195,6.475379609031936)"><path d="M7.78 9.38 q2.44 0 4.14 1.42 t1.88 3.62 l-3 0 q-0.28 -1.2 -1.08 -1.8 t-1.94 -0.6 q-1.84 0 -2.86 1.33 t-1.02 3.57 q0 2.2 1.04 3.49 t2.84 1.29 q3.08 0 3.4 -3.08 l-3.16 0 l0 -2.34 l6 0 l0 7.72 l-2 0 l-0.32 -1.62 q-1.5 1.96 -3.92 1.96 q-3.16 0 -5.09 -2.08 t-1.93 -5.34 q0 -3.32 1.92 -5.43 t5.1 -2.11 z M21.02 13.38 q4.52 0.02 4.52 2.94 l0 5.48 q0 1.52 0.36 2.2 l-2.88 0 q-0.16 -0.48 -0.2 -1 q-1.26 1.28 -3.48 1.28 q-1.62 0 -2.57 -0.82 t-0.95 -2.28 q0 -1.42 0.9 -2.2 q0.92 -0.82 3.34 -1.04 q1.72 -0.18 2.18 -0.45 t0.46 -0.83 q0 -0.7 -0.42 -1.04 t-1.4 -0.34 q-0.9 0 -1.36 0.37 t-0.54 1.19 l-2.84 0 q0.1 -1.7 1.4 -2.58 t3.48 -0.88 z M18.66 21.06 q0 1.32 1.74 1.32 q2.28 -0.02 2.3 -2.34 l0 -1.1 q-0.34 0.34 -1.72 0.5 q-1.2 0.14 -1.76 0.49 t-0.56 1.13 z M33.78 13.38 q0.36 0 0.62 0.1 l0 2.64 q-0.46 -0.1 -1.02 -0.1 q-2.8 0 -2.8 3.32 l0 4.66 l-2.84 0 l0 -10.34 l2.7 0 l0 1.92 l0.04 0 q0.42 -1 1.33 -1.6 t1.97 -0.6 z M40.28 13.38 q4.52 0.02 4.52 2.94 l0 5.48 q0 1.52 0.36 2.2 l-2.88 0 q-0.16 -0.48 -0.2 -1 q-1.26 1.28 -3.48 1.28 q-1.62 0 -2.57 -0.82 t-0.95 -2.28 q0 -1.42 0.9 -2.2 q0.92 -0.82 3.34 -1.04 q1.72 -0.18 2.18 -0.45 t0.46 -0.83 q0 -0.7 -0.42 -1.04 t-1.4 -0.34 q-0.9 0 -1.36 0.37 t-0.54 1.19 l-2.84 0 q0.1 -1.7 1.4 -2.58 t3.48 -0.88 z M37.919999999999995 21.06 q0 1.32 1.74 1.32 q2.28 -0.02 2.3 -2.34 l0 -1.1 q-0.34 0.34 -1.72 0.5 q-1.2 0.14 -1.76 0.49 t-0.56 1.13 z M51.120000000000005 13.38 q2.14 0 3.08 1.66 l0.04 0 l0 -1.38 l2.7 0 l0 9.7 q0 2.24 -1.39 3.4 t-3.95 1.16 q-1.96 0 -3.23 -0.94 t-1.35 -2.38 l2.82 0 q0.34 1.42 2.12 1.42 q1.1 0 1.69 -0.65 t0.59 -1.85 l0 -1.42 l-0.04 0 q-0.42 0.76 -1.23 1.18 t-1.87 0.42 q-2.08 0 -3.25 -1.36 t-1.17 -3.84 q0 -2.2 1.23 -3.66 t3.21 -1.46 z M49.52 18.46 q0 1.46 0.61 2.28 t1.69 0.82 q1.1 0 1.76 -0.79 t0.66 -2.09 q0 -1.56 -0.63 -2.36 t-1.81 -0.8 q-1.1 0 -1.69 0.83 t-0.59 2.11 z M64 13.38 q1.46 0 2.6 0.68 t1.79 1.97 t0.65 2.97 q0 0.16 -0.02 0.52 l-7.46 0 q0.04 1.24 0.65 1.93 t1.87 0.69 q0.78 0 1.43 -0.39 t0.83 -0.95 l2.5 0 q-1.1 3.48 -4.84 3.48 q-1.42 -0.02 -2.63 -0.62 t-1.93 -1.87 t-0.72 -2.95 q0 -1.58 0.73 -2.88 t1.94 -1.94 t2.61 -0.64 z M66.18 17.72 q-0.2 -1.16 -0.74 -1.68 t-1.54 -0.52 q-1.04 0 -1.64 0.59 t-0.7 1.61 l4.62 0 z  M81.48 9.38 q2.62 0 4.17 1.2 t1.55 3.4 l-3.04 0 q-0.06 -1.08 -0.73 -1.62 t-2.07 -0.54 q-0.98 0 -1.58 0.43 t-0.6 1.19 q0 0.62 0.37 0.9 t1.05 0.5 t2.38 0.64 q1.78 0.44 2.74 0.96 t1.46 1.33 t0.5 1.99 q0 1.36 -0.72 2.42 t-2.1 1.61 t-3.12 0.55 q-2.66 0 -4.37 -1.33 t-1.71 -3.65 l0 -0.1 l3.04 0 q0 1.26 0.86 1.95 t2.28 0.69 q1.26 0 2.03 -0.45 t0.77 -1.33 q0 -0.58 -0.42 -0.98 t-1.12 -0.65 t-2.36 -0.63 q-1.92 -0.48 -2.8 -1.02 t-1.34 -1.31 t-0.46 -1.85 q0 -1.34 0.77 -2.34 t2.01 -1.48 t2.56 -0.48 z M94.00000000000001 13.38 q4.52 0.02 4.52 2.94 l0 5.48 q0 1.52 0.36 2.2 l-2.88 0 q-0.16 -0.48 -0.2 -1 q-1.26 1.28 -3.48 1.28 q-1.62 0 -2.57 -0.82 t-0.95 -2.28 q0 -1.42 0.9 -2.2 q0.92 -0.82 3.34 -1.04 q1.72 -0.18 2.18 -0.45 t0.46 -0.83 q0 -0.7 -0.42 -1.04 t-1.4 -0.34 q-0.9 0 -1.36 0.37 t-0.54 1.19 l-2.84 0 q0.1 -1.7 1.4 -2.58 t3.48 -0.88 z M91.64000000000001 21.06 q0 1.32 1.74 1.32 q2.28 -0.02 2.3 -2.34 l0 -1.1 q-0.34 0.34 -1.72 0.5 q-1.2 0.14 -1.76 0.49 t-0.56 1.13 z M103.64000000000001 9.72 l0 2.34 l-2.84 0 l0 -2.34 l2.84 0 z M103.64000000000001 13.66 l0 10.34 l-2.84 0 l0 -10.34 l2.84 0 z M108.80000000000001 9.72 l0 14.28 l-2.84 0 l0 -14.28 l2.84 0 z M116.06 13.38 q2.48 0 3.92 1.51 t1.44 3.95 q0 2.46 -1.47 3.95 t-3.89 1.49 q-2.46 0 -3.9 -1.51 t-1.44 -3.93 q0 -2.5 1.47 -3.98 t3.87 -1.48 z M113.56 18.84 q0 1.58 0.64 2.44 t1.86 0.86 q1.26 0 1.89 -0.88 t0.63 -2.42 q0 -1.6 -0.65 -2.46 t-1.89 -0.86 q-1.2 0 -1.84 0.86 t-0.64 2.46 z M129.3 13.38 q0.36 0 0.62 0.1 l0 2.64 q-0.46 -0.1 -1.02 -0.1 q-2.8 0 -2.8 3.32 l0 4.66 l-2.84 0 l0 -10.34 l2.7 0 l0 1.92 l0.04 0 q0.42 -1 1.33 -1.6 t1.97 -0.6 z"/></g>
			</g>
		</svg>
	